<?xml version="1.0" encoding="UTF-8" standalone="no"?>
<!-- Generated by Graphviz version 2.16 (Fri Feb  8 12:52:03 UTC 2008)
     For user: (mark) Mark Shannon,,, -->
<!-- Title: g Pages: 1 -->
<svg
   xmlns:dc="http://purl.org/dc/elements/1.1/"
   xmlns:cc="http://creativecommons.org/ns#"
   xmlns:rdf="http://www.w3.org/1999/02/22-rdf-syntax-ns#"
   xmlns:svg="http://www.w3.org/2000/svg"
   xmlns="http://www.w3.org/2000/svg"
   xmlns:sodipodi="http://sodipodi.sourceforge.net/DTD/sodipodi-0.dtd"
   xmlns:inkscape="http://www.inkscape.org/namespaces/inkscape"
   width="353.39462"
   height="267.6806"
   viewBox="0 0 663 672"
   id="svg2"
   sodipodi:version="0.32"
   inkscape:version="0.46"
   sodipodi:docname="stack.svg"
   inkscape:output_extension="org.inkscape.output.svg.inkscape"
   sodipodi:docbase="C:\Documents and Settings\s9906329\Desktop\Marks drawings"
   version="1.0"
   sodipodi:modified="true">
  <metadata
     id="metadata227">
    <rdf:RDF>
      <cc:Work
         rdf:about="">
        <dc:format>image/svg+xml</dc:format>
        <dc:type
           rdf:resource="http://purl.org/dc/dcmitype/StillImage" />
      </cc:Work>
    </rdf:RDF>
  </metadata>
  <defs
     id="defs225">
    <marker
       inkscape:stockid="Arrow2Lend"
       orient="auto"
       refY="0.0"
       refX="0.0"
       id="Arrow2Lend"
       style="overflow:visible;">
      <path
         id="path3524"
         style="font-size:12.0;fill-rule:evenodd;stroke-width:0.62500000;stroke-linejoin:round;"
         d="M 8.7185878,4.0337352 L -2.2072895,0.016013256 L 8.7185884,-4.0017078 C 6.9730900,-1.6296469 6.9831476,1.6157441 8.7185878,4.0337352 z "
         transform="scale(1.1) rotate(180) translate(1,0)" />
    </marker>
    <inkscape:perspective
       sodipodi:type="inkscape:persp3d"
       inkscape:vp_x="0 : 41.675014 : 1"
       inkscape:vp_y="0 : 1000 : 0"
       inkscape:vp_z="109.99988 : 41.675014 : 1"
       inkscape:persp3d-origin="54.999939 : 27.783343 : 1"
       id="perspective110" />
    <title
       id="title5">g</title>
    <title
       id="title10">cluster_gvmt</title>
    <title
       id="title64">supery-&gt;superz</title>
    <title
       id="title104">superx</title>
    <title
       id="title53">supery</title>
    <title
       id="title24">superz</title>
    <title
       id="title35">frame_e</title>
    <title
       id="title144">frame_d</title>
    <title
       id="title176">frame_c</title>
    <title
       id="title77">frame_b</title>
    <title
       id="title124">frame_a</title>
    <title
       id="title160">handler1</title>
    <title
       id="title209">handler2</title>
    <title
       id="title86">supery-&gt;frame_b</title>
    <title
       id="title2728">frame_d-&gt;frame_e</title>
    <title
       id="title117">superx-&gt;supery</title>
    <title
       id="title185">frame_c-&gt;frame_d</title>
    <title
       id="title218">handler1-&gt;handler2</title>
    <title
       id="title17">cluster_heap</title>
  </defs>
  <sodipodi:namedview
     inkscape:window-height="997"
     inkscape:window-width="1243"
     inkscape:pageshadow="2"
     inkscape:pageopacity="0.0"
     guidetolerance="10.0"
     gridtolerance="10.0"
     objecttolerance="10.0"
     borderopacity="1.0"
     bordercolor="#666666"
     pagecolor="#ffffff"
     id="base"
     inkscape:zoom="3.0222586"
     inkscape:cx="175.34647"
     inkscape:cy="134.98247"
     inkscape:window-x="31"
     inkscape:window-y="0"
     inkscape:current-layer="svg2"
     showgrid="true"
     width="109.99988px"
     height="83.350029px"
     units="cm"
     borderlayer="false" />
  <g
     class="node"
     id="node4"
     transform="matrix(0.170113,0,0,0.170113,276.67518,378.3279)">
    <title
       id="title71">spacer1</title>
  </g>
  <g
     class="edge"
     id="edge23"
     transform="matrix(0.170113,0,0,0.170113,276.67518,378.3279)">
    <title
       id="title74">supery-&gt;spacer1</title>
  </g>
  <g
     class="node"
     id="node5"
     transform="matrix(0.170113,0,0,0.170113,276.67518,378.3279)">
    <title
       id="title95">spacer2</title>
  </g>
  <g
     class="edge"
     id="edge25"
     transform="matrix(0.170113,0,0,0.170113,276.67518,378.3279)">
    <title
       id="title98">spacer1-&gt;spacer2</title>
  </g>
  <g
     class="edge"
     id="edge27"
     transform="matrix(0.170113,0,0,0.170113,276.67518,378.3279)">
    <title
       id="title101">spacer2-&gt;superz</title>
  </g>
  <g
     class="edge"
     id="edge29"
     transform="matrix(0.170113,0,0,0.170113,276.67518,378.3279)">
    <title
       id="title192">frame_b-&gt;supery</title>
  </g>
  <text
     x="489.18884"
     y="631.04028"
     style="font-size:18.68956184px;font-style:normal;font-variant:normal;font-weight:normal;font-stretch:normal;text-indent:0;text-align:start;text-decoration:none;line-height:normal;letter-spacing:normal;word-spacing:normal;text-transform:none;direction:ltr;block-progression:tb;writing-mode:lr-tb;text-anchor:middle;fill:#000000;fill-opacity:1;fill-rule:nonzero;stroke:none;stroke-width:1;stroke-linecap:butt;stroke-linejoin:miter;marker:none;marker-start:none;marker-mid:none;marker-end:none;stroke-miterlimit:4;stroke-dasharray:none;stroke-dashoffset:0;stroke-opacity:1;visibility:visible;display:inline;overflow:visible;enable-background:accumulate;font-family:Times New Roman"
     id="text21"
     transform="scale(0.9714137,1.0294275)" />
  <polygon
     style="fill:#ffffff;stroke:#000000;stroke-width:0.72624081"
     points="304.75,-648 215.25,-648 215.25,-604 304.75,-604 304.75,-648 "
     id="polygon37"
     transform="matrix(1.4169227,0,0,1.3350521,-74.763689,911.81323)" />
  <polygon
     style="fill:#ffffff;stroke:#000000;stroke-width:0.72624081"
     points="304.75,-368 215.25,-368 215.25,-324 304.75,-324 304.75,-368 "
     id="polygon79"
     transform="matrix(1.4169227,0,0,1.3350521,-74.763689,900.21024)" />
  <polygon
     style="fill:#ffffff;stroke:#000000;stroke-width:0.83218026"
     points="321.124,-270 216.876,-270 216.876,-208 321.124,-208 321.124,-270 "
     id="polygon126"
     transform="matrix(1.2171943,0,0,1.0113692,-33.789231,802.68057)" />
  <polygon
     style="fill:#ffffff;stroke:#000000;stroke-width:0.72624081"
     points="304.75,-541 215.25,-541 215.25,-497 304.75,-497 304.75,-541 "
     id="polygon146"
     transform="matrix(1.4169227,0,0,1.3350521,-74.763713,889.70033)" />
  <ellipse
     style="fill:#ffffff;stroke:#000000;stroke-width:0.74822271"
     cx="420"
     cy="-519"
     rx="43.987801"
     ry="31.1127"
     id="ellipse162"
     sodipodi:cx="420"
     sodipodi:cy="-519"
     sodipodi:rx="43.987801"
     sodipodi:ry="31.1127"
     transform="matrix(1.3348901,0,0,1.3350521,-80.191774,892.58853)" />
  <polygon
     style="fill:#ffffff;stroke:#000000;stroke-width:0.72624081"
     points="304.75,-450 215.25,-450 215.25,-406 304.75,-406 304.75,-450 "
     id="polygon178"
     transform="matrix(1.4169227,0,0,1.3350521,-74.763689,888.94759)" />
  <path
     style="fill:none;stroke:#000000;stroke-width:0.99885577"
     d="M 293.63606,287.54285 C 293.63606,272.85726 293.63606,254.16656 293.63606,238.14591"
     id="path187" />
  <polygon
     style="fill:#000000;stroke:#000000;stroke-width:0.74822271"
     points="256.5,-487 260,-497 263.5,-487 256.5,-487 "
     id="polygon189"
     transform="matrix(1.3348901,0,0,1.3350521,-53.435278,892.58853)" />
  <ellipse
     style="fill:#ffffff;stroke:#000000;stroke-width:0.74822271"
     cx="578"
     cy="-519"
     rx="43.987801"
     ry="31.1127"
     id="ellipse211"
     sodipodi:cx="578"
     sodipodi:cy="-519"
     sodipodi:rx="43.987801"
     sodipodi:ry="31.1127"
     transform="matrix(1.3348901,0,0,1.3350521,-108.96685,892.58853)" />
  <path
     style="fill:none;stroke:#000000;stroke-width:0.99885577"
     d="M 538.62013,199.69645 C 554.59496,199.69645 570.57004,199.69645 586.54462,199.69645"
     id="path220" />
  <polygon
     style="fill:#000000;stroke:#000000;stroke-width:0.74822271"
     points="524,-522.5 534,-519 524,-515.5 524,-522.5 "
     id="polygon222"
     transform="matrix(1.3348901,0,0,1.3350521,-112.33176,892.58853)" />
  <path
     id="path3827"
     d="M 293.63606,165.78614 C 293.63606,151.10054 293.63606,132.40979 293.63606,116.38917"
     style="fill:none;stroke:#000000;stroke-width:0.99885577" />
  <polygon
     transform="matrix(1.3348901,0,0,1.3350521,-53.435278,770.83164)"
     id="polygon3829"
     points="256.5,-487 260,-497 263.5,-487 256.5,-487 "
     style="fill:#000000;stroke:#000000;stroke-width:0.74822271" />
  <path
     style="fill:none;stroke:#000000;stroke-width:0.99885577"
     d="M 293.63606,405.02739 C 293.63606,390.34185 293.63606,371.65115 293.63606,355.6305"
     id="path3831" />
  <polygon
     style="fill:#000000;stroke:#000000;stroke-width:0.74822271"
     points="256.5,-487 260,-497 263.5,-487 256.5,-487 "
     id="polygon3833"
     transform="matrix(1.3348901,0,0,1.3350521,-53.435278,1010.0729)" />
  <path
     id="path3835"
     d="M 293.63606,528.92035 C 293.63606,514.23473 293.63606,495.54388 293.63606,479.52323"
     style="fill:none;stroke:#000000;stroke-width:0.99885577" />
  <polygon
     transform="matrix(1.3348901,0,0,1.3350521,-53.435278,1133.9651)"
     id="polygon3837"
     points="256.5,-487 260,-497 263.5,-487 256.5,-487 "
     style="fill:#000000;stroke:#000000;stroke-width:0.74822271" />
  <path
     id="path3852"
     d="M 357.07503,199.69645 C 373.04989,199.69645 389.02472,199.69645 404.9998,199.69645"
     style="fill:none;stroke:#000000;stroke-width:0.99885577" />
  <polygon
     transform="matrix(1.3348901,0,0,1.3350521,-293.87678,892.58853)"
     id="polygon3854"
     points="524,-522.5 534,-519 524,-515.5 524,-522.5 "
     style="fill:#000000;stroke:#000000;stroke-width:0.74822271" />
  <text
     x="294.5144"
     y="550.10077"
     style="font-size:18.68959618px;text-anchor:middle;font-family:Times New Roman"
     id="text128"
     transform="scale(0.9999393,1.0000607)">HotPy Frame</text>
  <text
     x="293.68369"
     y="574.96088"
     style="font-size:18.68959618px;text-anchor:middle;font-family:Times New Roman"
     id="text130"
     transform="scale(0.9999393,1.0000607)" />
  <text
     x="294.5144"
     y="575.7334"
     style="font-size:18.68959618px;text-anchor:middle;font-family:Times New Roman"
     id="text132"
     transform="scale(0.9999393,1.0000607)">(Current Frame)</text>
  <text
     x="291.51797"
     y="431.04709"
     style="font-size:18.68959618px;text-anchor:middle;font-family:Times New Roman"
     id="text81"
     transform="scale(0.9999393,1.0000607)">HotPy Frame</text>
  <g
     id="g2705"
     transform="matrix(1.3348901,0,0,1.3350521,-60.910689,-2.8673602)">
    <text
       id="text180"
       style="font-size:14px;text-anchor:middle;font-family:Times New Roman"
       y="234.60001"
       x="264">HotPy Frame</text>
    <text
       id="text182"
       style="font-size:14px;text-anchor:middle;font-family:Times New Roman"
       y="252.60001"
       x="264" />
  </g>
  <g
     id="g2701"
     transform="matrix(1.3348901,0,0,1.3350521,-60.910713,-2.1149491)">
    <text
       id="text148"
       style="font-size:14px;text-anchor:middle;font-family:Times New Roman"
       y="143.59998"
       x="264">HotPy Frame</text>
    <text
       id="text150"
       style="font-size:14px;text-anchor:middle;font-family:Times New Roman"
       y="161.60001"
       x="264" />
  </g>
  <text
     x="480.49106"
     y="192.47543"
     style="font-size:18.68959045px;text-anchor:middle;font-family:Times New Roman"
     id="text164"
     transform="scale(0.9999392,1.0000608)">Exception</text>
  <text
     x="480.49106"
     y="216.5049"
     style="font-size:18.68959045px;text-anchor:middle;font-family:Times New Roman"
     id="text166"
     transform="scale(0.9999392,1.0000608)">Handler</text>
  <text
     x="662.63934"
     y="192.47543"
     style="font-size:18.68959045px;text-anchor:middle;font-family:Times New Roman"
     id="text213"
     transform="scale(0.9999392,1.0000608)">Exception</text>
  <text
     x="662.63934"
     y="216.5049"
     style="font-size:18.68959045px;text-anchor:middle;font-family:Times New Roman"
     id="text215"
     transform="scale(0.9999392,1.0000608)">Handler</text>
  <g
     id="g2697"
     transform="matrix(1.3348901,0,0,1.3350521,-60.910689,19.998448)">
    <text
       id="text39"
       style="font-size:14px;text-anchor:middle;font-family:Times New Roman"
       y="36.599976"
       x="264">HotPy Frame</text>
    <text
       id="text41"
       style="font-size:14px;text-anchor:middle;font-family:Times New Roman"
       y="54.599976"
       x="264">(Start frame)</text>
  </g>
  <path
     style="fill:none;fill-rule:evenodd;stroke:#000000;stroke-width:1px;stroke-linecap:butt;stroke-linejoin:miter;stroke-opacity:1;marker-end:url(#Arrow2Lend)"
     d="M 518.37667,558.20025 L 357.22957,565.67614 L 357.22957,565.67614 L 357.22957,565.67614 L 357.22957,565.67614"
     id="path4278" />
  <text
     x="590.77997"
     y="556.35052"
     style="font-size:18.68959618px;text-anchor:middle;font-family:Times New Roman"
     id="text4805"
     transform="scale(0.9999393,1.0000608)">Thread object</text>
  <rect
     style="fill:none;stroke:#000000;stroke-width:0.98737961;stroke-linejoin:round;stroke-miterlimit:4;stroke-dasharray:none;stroke-opacity:1"
     id="rect4811"
     width="147.02596"
     height="102.17058"
     x="518.37665"
     y="501.7157"
     ry="31.564896" />
  <ellipse
     style="fill:#ffffff;stroke:#000000;stroke-width:0.74822271"
     cx="420"
     cy="-519"
     rx="43.987801"
     ry="31.1127"
     id="ellipse4816"
     sodipodi:cx="420"
     sodipodi:cy="-519"
     sodipodi:rx="43.987801"
     sodipodi:ry="31.1127"
     transform="matrix(1.33489,0,0,1.3350522,-79.718104,1006.8797)" />
  <path
     id="path4818"
     d="M 357.5487,313.98764 C 373.52356,313.98764 389.49839,313.98764 405.47347,313.98764"
     style="fill:none;stroke:#000000;stroke-width:0.99885577" />
  <polygon
     transform="matrix(1.33489,0,0,1.3350522,-293.40311,1006.8797)"
     id="polygon4820"
     points="524,-522.5 534,-519 524,-515.5 524,-522.5 "
     style="fill:#000000;stroke:#000000;stroke-width:0.74822271" />
  <text
     x="480.96478"
     y="306.75967"
     style="font-size:18.68958855px;text-anchor:middle;font-family:Times New Roman"
     id="text4822"
     transform="scale(0.9999393,1.0000608)">Exception</text>
  <text
     x="480.96478"
     y="330.78915"
     style="font-size:18.68958855px;text-anchor:middle;font-family:Times New Roman"
     id="text4824"
     transform="scale(0.9999393,1.0000608)">Handler</text>
</svg>
